<svg width="376" height="376" viewBox="0 0 376 376" fill="none" xmlns="http://www.w3.org/2000/svg">
<path d="M70.7098 333.294C70.7098 311.273 79.3938 290.153 94.8539 274.576C110.314 258.999 131.285 250.239 153.156 250.223H219.922C241.794 250.239 262.765 258.999 278.225 274.576C293.685 290.153 302.369 311.273 302.369 333.294" fill="white"/>
<path d="M70.7098 333.294C70.7098 311.273 79.3938 290.153 94.8539 274.576C110.314 258.999 131.285 250.239 153.156 250.223H219.922C241.794 250.239 262.765 258.999 278.225 274.576C293.685 290.153 302.369 311.273 302.369 333.294" stroke="black" stroke-width="10.7429" stroke-linecap="round" stroke-linejoin="round"/>
<path d="M120.999 151.797C116.504 151.389 112.266 149.501 108.944 146.424C105.622 143.347 103.401 139.253 102.623 134.775C100.112 117.692 98.4583 97.0934 103.91 80.5037C109.361 63.9141 128.411 51.2713 144.337 45.8442C162.912 40.3858 182.365 38.6261 201.608 40.6638C216.003 41.6505 231.5 43.1307 243.873 35.6067" fill="white"/>
<path d="M120.999 151.797C116.504 151.389 112.266 149.501 108.944 146.424C105.622 143.347 103.401 139.253 102.623 134.775C100.112 117.692 98.4583 97.0934 103.91 80.5037C109.361 63.9141 128.411 51.2713 144.337 45.8442C162.912 40.3858 182.365 38.6261 201.608 40.6638C216.003 41.6505 231.5 43.1307 243.873 35.6067" stroke="black" stroke-width="10.7429" stroke-linecap="round" stroke-linejoin="round"/>
<path d="M116.895 177.702C127.416 177.702 135.945 169.115 135.945 158.522C135.945 147.93 127.416 139.342 116.895 139.342C106.374 139.342 97.845 147.93 97.845 158.522C97.845 169.115 106.374 177.702 116.895 177.702Z" fill="white" stroke="black" stroke-width="10.7429" stroke-linecap="round" stroke-linejoin="round"/>
<path d="M241.977 66.1954C247.175 65.2742 252.134 63.3023 256.555 60.3985C259.738 57.7187 262.765 54.8563 265.621 51.8259" stroke="black" stroke-width="10.7429" stroke-linecap="round" stroke-linejoin="round"/>
<path d="M160.325 224.079H218.515V257.32C218.523 261.167 217.778 264.978 216.323 268.535C214.869 272.092 212.733 275.326 210.037 278.052C207.34 280.778 204.137 282.943 200.61 284.423C197.083 285.902 193.302 286.668 189.481 286.676C181.764 286.676 174.364 283.589 168.908 278.096C163.451 272.602 160.386 265.151 160.386 257.382V224.079H160.325Z" fill="white" stroke="black" stroke-width="10.7429" stroke-linecap="round" stroke-linejoin="round"/>
<path d="M261.268 109.98V179.114C261.268 186.66 259.791 194.131 256.921 201.101C254.051 208.071 249.846 214.404 244.543 219.736C239.242 225.069 232.948 229.296 226.022 232.178C219.096 235.06 211.674 236.539 204.18 236.531H178.576C163.452 236.531 148.947 230.482 138.253 219.714C127.558 208.947 121.55 194.342 121.55 179.114V109.98H239.891C250.288 109.98 260.259 105.822 267.611 98.4199C274.962 91.0175 279.092 80.9783 279.092 70.5105" fill="white"/>
<path d="M261.268 109.98V179.114C261.268 186.66 259.791 194.131 256.921 201.101C254.051 208.071 249.846 214.404 244.543 219.736C239.242 225.069 232.948 229.296 226.022 232.178C219.096 235.06 211.674 236.539 204.18 236.531H178.576C163.452 236.531 148.947 230.482 138.253 219.714C127.558 208.947 121.55 194.342 121.55 179.114V109.98H239.891C250.288 109.98 260.259 105.822 267.611 98.4199C274.962 91.0175 279.092 80.9783 279.092 70.5105" stroke="black" stroke-width="10.7429" stroke-linecap="round" stroke-linejoin="round"/>
<path d="M167.306 145.134H169.266" stroke="black" stroke-width="10.7429" stroke-linecap="round" stroke-linejoin="round"/>
<path d="M209.633 145.134H211.593" stroke="black" stroke-width="10.7429" stroke-linecap="round" stroke-linejoin="round"/>
<path d="M171.225 186.951C171.225 186.951 191.805 199.285 208.466 186.951H171.225Z" fill="white"/>
<path d="M171.225 186.951C171.225 186.951 191.805 199.285 208.466 186.951" stroke="black" stroke-width="10.7429" stroke-linecap="round" stroke-linejoin="round"/>
<path d="M269.169 340.393V257.075L307.085 187.57L346.165 257.075V339.221" fill="white"/>
<path d="M269.169 340.393V257.075L307.085 187.57L346.165 257.075V339.221" stroke="black" stroke-width="10.7429" stroke-linecap="round" stroke-linejoin="round"/>
<path d="M273.765 256.947C282.524 256.947 282.524 269.282 291.283 269.282C300.042 269.282 300.103 256.947 308.863 256.947C317.622 256.947 317.622 269.282 326.442 269.282C335.263 269.282 335.263 256.947 344.022 256.947" fill="white"/>
<path d="M273.765 256.947C282.524 256.947 282.524 269.282 291.283 269.282C300.042 269.282 300.103 256.947 308.863 256.947C317.622 256.947 317.622 269.282 326.442 269.282C335.263 269.282 335.263 256.947 344.022 256.947" stroke="black" stroke-width="10.7429" stroke-linecap="round" stroke-linejoin="round"/>
<path d="M295.429 217.543H322.286" stroke="black" stroke-width="10.7429" stroke-linecap="round" stroke-linejoin="round"/>
<path d="M40.5148 87.5376H65.8736V111.343C65.8736 114.205 64.7446 116.95 62.734 118.974C60.724 120.998 57.9975 122.136 55.1544 122.136H51.1729C48.33 122.136 45.6035 120.998 43.5932 118.974C41.583 116.95 40.4536 114.205 40.4536 111.343V87.5376H40.5148Z" fill="white" stroke="black" stroke-width="10.7429" stroke-linecap="round" stroke-linejoin="round"/>
<path d="M54.1736 101.652C46.0321 101.434 38.2657 98.1607 32.3986 92.4739C26.5314 86.7867 22.9871 79.0975 22.4613 70.9146C21.9356 62.7323 24.4663 54.6472 29.5567 48.2464C34.6472 41.8458 41.9299 37.5919 49.9753 36.3196C58.0206 35.0473 66.248 36.8484 73.0423 41.3696C79.8366 45.8907 84.7074 52.8053 86.6981 60.7562C88.6893 68.707 87.6569 77.1202 83.804 84.3443C79.951 91.5683 73.5553 97.0815 65.8725 99.8022" fill="white"/>
<path d="M54.1736 101.652C46.0321 101.434 38.2657 98.1607 32.3986 92.4739C26.5314 86.7867 22.9871 79.0975 22.4613 70.9146C21.9356 62.7323 24.4663 54.6472 29.5567 48.2464C34.6472 41.8458 41.9299 37.5919 49.9753 36.3196C58.0206 35.0473 66.248 36.8484 73.0423 41.3696C79.8366 45.8907 84.7074 52.8053 86.6981 60.7562C88.6893 68.707 87.6569 77.1202 83.804 84.3443C79.951 91.5683 73.5553 97.0815 65.8725 99.8022" stroke="black" stroke-width="10.7429" stroke-linecap="round" stroke-linejoin="round"/>
</svg>
