<svg width="571" height="571" viewBox="0 0 571 571" fill="none" xmlns="http://www.w3.org/2000/svg">
<g clip-path="url(#clip0_1711_7)">
<mask id="mask0_1711_7" style="mask-type:luminance" maskUnits="userSpaceOnUse" x="0" y="0" width="571" height="571">
<path d="M571 0H0V571H571V0Z" fill="white"/>
</mask>
<g mask="url(#mask0_1711_7)">
<path d="M429.472 391.134C427.192 391.145 424.983 390.346 423.237 388.879L350.68 330.117C349.54 329.172 348.621 327.986 347.991 326.645C347.36 325.304 347.033 323.84 347.033 322.358V159.868C347.033 157.229 348.08 154.699 349.947 152.833C351.812 150.968 354.343 149.919 356.981 149.919C359.619 149.919 362.15 150.968 364.015 152.833C365.881 154.699 366.929 157.229 366.929 159.868V317.649L435.772 373.426C437.41 374.736 438.591 376.531 439.148 378.552C439.705 380.574 439.609 382.72 438.874 384.684C438.138 386.648 436.801 388.329 435.053 389.487C433.305 390.646 431.235 391.222 429.14 391.134H429.472Z" fill="black"/>
<path fill-rule="evenodd" clip-rule="evenodd" d="M373.436 460.994C472.326 460.994 552.492 380.828 552.492 281.938C552.492 183.048 472.326 102.882 373.436 102.882C274.546 102.882 194.38 183.048 194.38 281.938C194.38 380.828 274.546 460.994 373.436 460.994ZM373.436 479.502C482.547 479.502 571 391.049 571 281.938C571 172.827 482.547 84.3755 373.436 84.3755C264.325 84.3755 175.873 172.827 175.873 281.938C175.873 391.049 264.325 479.502 373.436 479.502Z" fill="black"/>
<path d="M45.2666 131.048C45.2666 125.096 50.0918 120.27 56.044 120.27H140.108C146.06 120.27 150.885 125.096 150.885 131.048C150.885 137 146.06 141.825 140.108 141.825H56.044C50.0918 141.825 45.2666 137 45.2666 131.048Z" fill="black"/>
<path d="M45.2666 432.814C45.2666 426.862 50.0918 422.037 56.044 422.037H140.108C146.06 422.037 150.885 426.862 150.885 432.814C150.885 438.766 146.06 443.591 140.108 443.591H56.044C50.0918 443.591 45.2666 438.766 45.2666 432.814Z" fill="black"/>
<path d="M0 281.939C0 275.986 4.8252 271.161 10.7774 271.161H94.8415C100.793 271.161 105.619 275.986 105.619 281.939C105.619 287.891 100.793 292.716 94.8415 292.716H10.7774C4.8252 292.716 0 287.891 0 281.939Z" fill="black"/>
</g>
</g>
<defs>
<clipPath id="clip0_1711_7">
<rect width="571" height="571" fill="white"/>
</clipPath>
</defs>
</svg>
